<svg>
  <defs>
    <symbol id="code-bracket" xmlns="http://www.w3.org/2000/svg" fill="none" viewBox="0 0 24 24" stroke-width="1.5" stroke="currentColor" class="w-6 h-6">
      <path stroke-linecap="round" stroke-linejoin="round" d="M17.25 6.75 22.5 12l-5.25 5.25m-10.5 0L1.5 12l5.25-5.25m7.5-3-4.5 16.5" />
    </symbol>
    <symbol id="home" xmlns="http://www.w3.org/2000/svg" fill="none" viewBox="0 0 24 24" stroke-width="1.5" stroke="currentColor" class="w-6 h-6">
      <path stroke-linecap="round" stroke-linejoin="round" d="m2.25 12 8.954-8.955c.44-.439 1.152-.439 1.591 0L21.75 12M4.5 9.75v10.125c0 .621.504 1.125 1.125 1.125H9.75v-4.875c0-.621.504-1.125 1.125-1.125h2.25c.621 0 1.125.504 1.125 1.125V21h4.125c.621 0 1.125-.504 1.125-1.125V9.75M8.25 21h8.25" />
    </symbol>
    <symbol id="document-chart-bar" xmlns="http://www.w3.org/2000/svg" fill="none" viewBox="0 0 24 24" stroke-width="1.5" stroke="currentColor" class="w-6 h-6">
      <path stroke-linecap="round" stroke-linejoin="round" d="M19.5 14.25v-2.625a3.375 3.375 0 0 0-3.375-3.375h-1.5A1.125 1.125 0 0 1 13.5 7.125v-1.5a3.375 3.375 0 0 0-3.375-3.375H8.25M9 16.5v.75m3-3v3M15 12v5.25m-4.5-15H5.625c-.621 0-1.125.504-1.125 1.125v17.25c0 .621.504 1.125 1.125 1.125h12.75c.621 0 1.125-.504 1.125-1.125V11.25a9 9 0 0 0-9-9Z" />
      </symbol>
      <symbol id="user-circle" xmlns="http://www.w3.org/2000/svg" fill="none" viewBox="0 0 24 24" stroke-width="1.5" stroke="currentColor" class="w-6 h-6">
        <path stroke-linecap="round" stroke-linejoin="round" d="M17.982 18.725A7.488 7.488 0 0 0 12 15.75a7.488 7.488 0 0 0-5.982 2.975m11.963 0a9 9 0 1 0-11.963 0m11.963 0A8.966 8.966 0 0 1 12 21a8.966 8.966 0 0 1-5.982-2.275M15 9.75a3 3 0 1 1-6 0 3 3 0 0 1 6 0Z" />
      </symbol>
      <symbol id="light-bulb" xmlns="http://www.w3.org/2000/svg" fill="none" viewBox="0 0 24 24" stroke-width="1.5" stroke="currentColor" class="w-6 h-6">
        <path stroke-linecap="round" stroke-linejoin="round" d="M12 18v-5.25m0 0a6.01 6.01 0 0 0 1.5-.189m-1.5.189a6.01 6.01 0 0 1-1.5-.189m3.75 7.478a12.06 12.06 0 0 1-4.5 0m3.75 2.383a14.406 14.406 0 0 1-3 0M14.25 18v-.192c0-.983.658-1.823 1.508-2.316a7.5 7.5 0 1 0-7.517 0c.85.493 1.509 1.333 1.509 2.316V18" />
      <symbol>
      <symbol id="trophy" xmlns="http://www.w3.org/2000/svg" fill="none" viewBox="0 0 24 24" stroke-width="1.5" stroke="currentColor" class="w-6 h-6">
        <path stroke-linecap="round" stroke-linejoin="round" d="M16.5 18.75h-9m9 0a3 3 0 0 1 3 3h-15a3 3 0 0 1 3-3m9 0v-3.375c0-.621-.503-1.125-1.125-1.125h-.871M7.5 18.75v-3.375c0-.621.504-1.125 1.125-1.125h.872m5.007 0H9.497m5.007 0a7.454 7.454 0 0 1-.982-3.172M9.497 14.25a7.454 7.454 0 0 0 .981-3.172M5.25 4.236c-.982.143-1.954.317-2.916.52A6.003 6.003 0 0 0 7.73 9.728M5.25 4.236V4.5c0 2.108.966 3.99 2.48 5.228M5.25 4.236V2.721C7.456 2.41 9.71 2.25 12 2.25c2.291 0 4.545.16 6.75.47v1.516M7.73 9.728a6.726 6.726 0 0 0 2.748 1.35m8.272-6.842V4.5c0 2.108-.966 3.99-2.48 5.228m2.48-5.492a46.32 46.32 0 0 1 2.916.52 6.003 6.003 0 0 1-5.395 4.972m0 0a6.726 6.726 0 0 1-2.749 1.35m0 0a6.772 6.772 0 0 1-3.044 0" />
      </symbol>
      <symbol id="wrench-screwdriver" xmlns="http://www.w3.org/2000/svg" fill="none" viewBox="0 0 24 24" stroke-width="1.5" stroke="currentColor" class="w-6 h-6">
        <path stroke-linecap="round" stroke-linejoin="round" d="M11.42 15.17 17.25 21A2.652 2.652 0 0 0 21 17.25l-5.877-5.877M11.42 15.17l2.496-3.03c.317-.384.74-.626 1.208-.766M11.42 15.17l-4.655 5.653a2.548 2.548 0 1 1-3.586-3.586l6.837-5.63m5.108-.233c.55-.164 1.163-.188 1.743-.14a4.5 4.5 0 0 0 4.486-6.336l-3.276 3.277a3.004 3.004 0 0 1-2.25-2.25l3.276-3.276a4.5 4.5 0 0 0-6.336 4.486c.091 1.076-.071 2.264-.904 2.95l-.102.085m-1.745 1.437L5.909 7.5H4.5L2.25 3.75l1.5-1.5L7.5 4.5v1.409l4.26 4.26m-1.745 1.437 1.745-1.437m6.615 8.206L15.75 15.75M4.867 19.125h.008v.008h-.008v-.008Z" />
      </symbol>
      <symbol id="chat-bubble-left-right" xmlns="http://www.w3.org/2000/svg" fill="none" viewBox="0 0 24 24" stroke-width="1.5" stroke="currentColor" class="w-6 h-6">
        <path stroke-linecap="round" stroke-linejoin="round" d="M20.25 8.511c.884.284 1.5 1.128 1.5 2.097v4.286c0 1.136-.847 2.1-1.98 2.193-.34.027-.68.052-1.02.072v3.091l-3-3c-1.354 0-2.694-.055-4.02-.163a2.115 2.115 0 0 1-.825-.242m9.345-8.334a2.126 2.126 0 0 0-.476-.095 48.64 48.64 0 0 0-8.048 0c-1.131.094-1.976 1.057-1.976 2.192v4.286c0 .837.46 1.58 1.155 1.951m9.345-8.334V6.637c0-1.621-1.152-3.026-2.76-3.235A48.455 48.455 0 0 0 11.25 3c-2.115 0-4.198.137-6.24.402-1.608.209-2.76 1.614-2.76 3.235v6.226c0 1.621 1.152 3.026 2.76 3.235.577.075 1.157.14 1.74.194V21l4.155-4.155" />
      </symbol>
      <symbol id="user-group" xmlns="http://www.w3.org/2000/svg" fill="none" viewBox="0 0 24 24" stroke-width="1.5" stroke="currentColor" class="w-6 h-6">
        <path stroke-linecap="round" stroke-linejoin="round" d="M18 18.72a9.094 9.094 0 0 0 3.741-.479 3 3 0 0 0-4.682-2.72m.94 3.198.001.031c0 .225-.012.447-.037.666A11.944 11.944 0 0 1 12 21c-2.17 0-4.207-.576-5.963-1.584A6.062 6.062 0 0 1 6 18.719m12 0a5.971 5.971 0 0 0-.941-3.197m0 0A5.995 5.995 0 0 0 12 12.75a5.995 5.995 0 0 0-5.058 2.772m0 0a3 3 0 0 0-4.681 2.72 8.986 8.986 0 0 0 3.74.477m.94-3.197a5.971 5.971 0 0 0-.94 3.197M15 6.75a3 3 0 1 1-6 0 3 3 0 0 1 6 0Zm6 3a2.25 2.25 0 1 1-4.5 0 2.25 2.25 0 0 1 4.5 0Zm-13.5 0a2.25 2.25 0 1 1-4.5 0 2.25 2.25 0 0 1 4.5 0Z" />
      </symbol>
      <symbol id="telegram" data-name="Layer 1" xmlns="http://www.w3.org/2000/svg" viewBox="0 0 1604.15 1324.45">
        <path class="cls-1" d="M2315,889.92c1.61-78.1-31.19-107.63-91.9-98.2a257.54,257.54,0,0,0-58,16.17q-681,280.8-1361.61,562.74c-23.54,9.75-45.91,23.19-67.13,37.43-16.56,11.11-29.2,27.67-24.42,49.54s19.7,35.45,41.62,42.44c90.78,28.94,181,59.7,272.12,87.54,68.63,21,134.37,14,195.38-27.47,84.64-57.5,170.32-113.45,255.2-170.57,113.76-76.56,226.8-154.19,341.09-230,23.44-15.53,50.67-25.69,76.94-36.38,6.91-2.81,20.12-1.22,24.38,3.65s4.44,18.38.69,24.71c-13.35,22.52-26.35,46.36-44.51,64.72q-97,98-197.49,192.49c-79.48,75-160.29,148.66-240.65,222.77-35.07,32.34-34.44,86.61,3,117.63,27.31,22.65,55.19,44.84,84.44,64.87q182.58,125.09,366.32,248.5c43.49,29.18,92.74,43.5,144.51,50.81,40,5.66,68.14-10.37,86.09-44.3,9-16.94,16.17-35.88,19.18-54.72q73.64-460.92,145.71-922.08C2297.33,1019.37,2307,946.21,2315,889.92Z" transform="translate(-710.92 -790.03)" fill="#fff"/><path class="cls-2" d="M2315,889.92c-10.66,73.74-162.36,1120.11-194,1179.14-14.34,26.77-36,37.65-36,37.65-14,7-30.62,9.4-50,6.65-51.77-7.31-101-21.63-144.51-50.81q-183.78-123.33-366.32-248.5c-29.25-20-57.13-42.22-84.44-64.87-37.4-31-38-85.29-3-117.63,80.36-74.11,161.17-147.74,240.65-222.77q100.26-94.66,197.49-192.49c18.16-18.36,31.16-42.2,44.51-64.72,3.75-6.33,3.63-19.77-.69-24.71s-17.47-6.46-24.38-3.65c-26.27,10.69-53.5,20.85-76.94,36.38-114.29,75.76-227.33,153.39-341.09,230-84.88,57.12-170.56,113.07-255.2,170.57-61,41.45-126.75,48.45-195.38,27.47-91.11-27.85-181.34-58.6-272.12-87.54-21.92-7-36.81-20.46-41.62-42.44a41.19,41.19,0,0,1-.47-15.76s2.6-17.93,24.89-33.78c67.08-47.72,1367.43-569.34,1428.74-600.17,3.49-1.75,26.56-11.28,58-16.17C2283.83,782.29,2316.63,811.82,2315,889.92Z" transform="translate(-710.92 -790.03)" fill="#e8e8e8"/>
      </symbol>
      <symbol id="phone" data-name="Layer 1" xmlns="http://www.w3.org/2000/svg" viewBox="0 0 1456.76 1456.8">
          <path class="cls-1" d="M1065.64,1403.79c79.23,154.63,184.88,285,317.72,393.46,63,51.41,130.76,95.59,202.42,134,10.64,5.7,17.1,5.14,25.8-3.76,43.85-44.83,88.67-88.72,132.75-133.33,40.69-41.17,89.11-57.68,146.7-50.28,67.2,8.64,134.78,14.44,201.88,23.76,80.85,11.23,137.48,77.19,138.33,158.58.49,46.88.58,93.77,0,140.64-1.24,97.29-77,167.56-174.1,162-512-29.22-979.52-363.32-1178.5-842-58.84-141.54-94.14-288.57-103.42-441.64-5.74-94.7,64.55-170.46,159.91-172.34,46.23-.91,92.49-.5,138.73-.15,87.88.68,154.68,60.23,165.14,147.3,7.85,65.39,15.24,130.84,22.63,196.28,6.14,54.37-9.54,101.3-48.49,140.15C1164.28,1305.22,1115.5,1354,1065.64,1403.79Z" transform="translate(-774.88 -772.37)" fill="#e8e8e8"/>
      </symbol>
      <symbol id="chat-bubble-left" xmlns="http://www.w3.org/2000/svg" version="1.1" xmlns:xlink="http://www.w3.org/1999/xlink" xmlns:svgjs="http://svgjs.com/svgjs">
        <g id="SvgjsG1008" transform="matrix(1,0,0,1,0,0)">
          <svg xmlns="http://www.w3.org/2000/svg" viewBox="0 0 24 24">
            <g data-name="Layer 2">
              <g data-name="message-circle">
                <rect width="24" height="24" opacity="0" fill="#e8e8e8" class="color000 svgShape">
                </rect>
                  <path d="M19.07 4.93a10 10 0 0 0-16.28 11 1.06 1.06 0 0 1 .09.64L2 20.8a1 1 0 0 0 .27.91A1 1 0 0 0 3 22h.2l4.28-.86a1.26 1.26 0 0 1 .64.09 10 10 0 0 0 11-16.28zM8 13a1 1 0 1 1 1-1 1 1 0 0 1-1 1zm4 0a1 1 0 1 1 1-1 1 1 0 0 1-1 1zm4 0a1 1 0 1 1 1-1 1 1 0 0 1-1 1z" fill="#e8e8e8" class="color000 svgShape">
                  </path>
                </g>
              </g>
            </svg>
          </g>
        </symbol>
        <symbol id="plus" xmlns="http://www.w3.org/2000/svg" fill="none" viewBox="0 0 24 24" stroke-width="1.5" stroke="currentColor" class="w-6 h-6">
            <path stroke-linecap="round" stroke-linejoin="round" d="M12 4.5v15m7.5-7.5h-15" />
      </symbol>
  </defs>
</svg>